<svg width="500" height="500" viewBox="0 0 35 35" xmlns="http://www.w3.org/2000/svg"><path d="M10.322 30.984h14.223c1.494 0 2.387 -0.82 2.387 -2.402v-0.381c0.015 -4.043 -4.291 -7.324 -6.181 -9.111 -0.527 -0.498 -0.806 -0.952 -0.806 -1.611s0.278 -1.099 0.806 -1.611c1.875 -1.817 6.181 -4.893 6.181 -9.097v-0.351c0 -1.583 -0.894 -2.402 -2.387 -2.402H10.322c-1.465 0 -2.271 0.82 -2.271 2.271v0.483c0 4.204 4.306 7.28 6.196 9.097 0.527 0.512 0.806 0.952 0.806 1.611s-0.278 1.113 -0.806 1.611c-1.889 1.787 -6.196 5.069 -6.196 9.111v0.512c0 1.45 0.806 2.271 2.271 2.271m1.523 -2.006c-0.703 0 -0.922 -0.777 -0.234 -1.289l5.01 -3.736c0.161 -0.131 0.249 -0.219 0.249 -0.439V16.468c0 -0.791 -0.161 -1.187 -0.717 -1.656 -0.835 -0.703 -2.417 -1.816 -3.135 -2.827 -0.293 -0.41 -0.264 -0.747 0.103 -0.747h8.745c0.366 0 0.396 0.337 0.103 0.747 -0.717 1.011 -2.285 2.124 -3.134 2.827 -0.556 0.469 -0.718 0.864 -0.718 1.656V23.512c0 0.22 0.088 0.307 0.249 0.439l5.024 3.736c0.688 0.512 0.454 1.289 -0.234 1.289Z"/></svg>