<svg width="40" height="40" viewBox="0 0 40 40" xmlns="http://www.w3.org/2000/svg">
    <g fill-rule="evenodd" fill="">
        <path d="M14.684 9.29v-.002C14.685 6.421 17.194 4 20.074 4s5.39 2.422 5.39 5.29v5.74h-10.75zm-1.97 5.74-.03-5.734v-.005C12.684 5.27 16.138 2 20.074 2s7.39 3.27 7.39 7.29v5.74h1.554c2.133 0 3.982 1.816 3.982 4.146q0 .044-.004.087L31.722 33.9c-.023 2.278-1.692 4.1-3.982 4.1H12.26c-2.12 0-3.957-1.791-3.982-4.1L7.004 19.264 7 19.176c0-2.299 1.676-4.145 3.982-4.145zm13.739 2h2.564c.981 0 1.962.863 1.983 2.106l-1.274 14.632-.004.087c0 1.296-.88 2.145-1.982 2.145H12.26c-.99 0-1.982-.881-1.982-2.145l-.004-.087L9 19.136c.018-1.273.891-2.105 1.982-2.105h15.47z"/>
        <path d="m18.942 25.72.465 4.289h1.447l.347-4.277c-.019-.68-.604-1.212-1.13-1.212-.522 0-1.103.526-1.129 1.2m-2 .047c0-1.7 1.392-3.247 3.13-3.247s3.13 1.547 3.13 3.247l-.004.08-.426 5.243a1 1 0 0 1-.996.919h-3.267a1 1 0 0 1-.994-.893l-.568-5.242a1 1 0 0 1-.006-.107z"/>
    </g>
</svg>
