<svg width="500" height="500" viewBox="0 0 15 15" xmlns="http://www.w3.org/2000/svg" fill="none"><path fill="#000" fill-rule="evenodd" d="M7.057 13.566 7.5 13.125zM7.5 13.125l0.443 0.441a0.625 0.625 0 0 1 -0.886 0l-0.004 -0.004 -0.011 -0.011 -0.039 -0.039a30 30 0 0 1 -0.65 -0.691 31.25 31.25 0 0 1 -1.535 -1.817c-0.557 -0.719 -1.127 -1.531 -1.561 -2.334C2.834 7.883 2.5 7.03 2.5 6.25c0 -2.837 2.245 -5 5 -5s5 2.163 5 5c0 0.78 -0.334 1.633 -0.758 2.419 -0.433 0.804 -1.002 1.616 -1.561 2.334a31.25 31.25 0 0 1 -2.185 2.509l-0.039 0.039 -0.011 0.011 -0.004 0.004zm0 -5a1.875 1.875 0 1 0 0 -3.75 1.875 1.875 0 0 0 0 3.75" clip-rule="evenodd"/></svg>