<svg width="100" height="100" viewBox="0 0 16 16" xmlns="http://www.w3.org/2000/svg" aria-hidden="true" class="iconify iconify--noto"><path d="M10.82 11.36a.1.1 0 0 1-.058-.018c-.066-.05-.055-.326-.051-.417a.55.55 0 0 0-.135-.351q-.053-.054-.11-.055h-.005l-.014.001-.016.005c-.084.019-.085.122-.086.224a.7.7 0 0 1-.025.214c-.013.037-.059.039-.068.039-.055 0-.115-.035-.117-.113q0-.014-.007-.041c-.009-.044-.029-.134-.019-.318.013-.22.039-.471.139-.672l.013-.024-.67-2.413-.263-.859c.095-.05.325-.156.556-.156q.405.001.563.422c.172.45.279.994.335 1.712.044.552.117 1.012.151 1.12l.03.095c.039.126.054.174.215.512.085.179.051.359.011.568q-.021.105-.036.212c-.024.159-.209.311-.333.311" fill="url(#IconifyId17ecdb2904d178eab24808)"/><path d="M5.18 11.36c-.124 0-.309-.154-.33-.31q-.017-.111-.036-.212c-.04-.209-.074-.39.01-.569.16-.336.176-.388.214-.509l.031-.098c.034-.101.107-.559.152-1.12.058-.72.164-1.264.334-1.711q.16-.42.564-.421c.233 0 .463.106.556.155l-.263.856-.67 2.414.013.024c.101.201.126.453.139.672.009.184-.01.274-.02.318a.2.2 0 0 0-.006.041.115.115 0 0 1-.117.113q-.054 0-.068-.039a.7.7 0 0 1-.025-.212c-.001-.101-.004-.206-.096-.228l-.022-.003q-.06 0-.114.055a.55.55 0 0 0-.135.35c.004.091.015.367-.052.419a.1.1 0 0 1-.058.015" fill="url(#IconifyId17ecdb2904d178eab24809)"/><path d="m8.84 15.176-.644-4.383c-.019-.095-.101-.159-.195-.159s-.176.064-.194.152l-.646 4.389-.775.03-.129-5.754h3.485l-.128 5.754z" fill="#7c7c7c"/><path d="M9.252 15.5h.556c.102-.003.176-.12.146-.223a.74.74 0 0 0-.703-.54.745.745 0 0 0-.708.557.16.16 0 0 0 .151.204h.556zm-2.505 0h-.556c-.102-.003-.176-.12-.146-.223a.74.74 0 0 1 .703-.54c.335 0 .62.237.708.557a.16.16 0 0 1-.151.204h-.556z" fill="#424242"/><path d="M8.031.501c-2.272 0-2.254 2.101-2.254 2.135 0 1.361.104 3.284.649 4.04.216.3.634.316.634.316L8 6.991l.94.001s.417-.016.634-.316c.545-.756.649-2.679.649-4.04 0-.034.081-2.135-2.191-2.135" fill="#ab872f"/><radialGradient id="a" cx="63.999" cy="26.802" r="21.072" gradientTransform="matrix(1 0 0 1.1901 0 -3.256)" gradientUnits="userSpaceOnUse"><stop offset=".794" stop-color="#bfa055" stop-opacity="0"/><stop offset="1" stop-color="#bfa055"/></radialGradient><path d="M8.031.501c-2.272 0-2.254 2.101-2.254 2.135 0 1.361.104 3.284.649 4.04.216.3.634.316.634.316L8 6.991l.94.001s.417-.016.634-.316c.545-.756.649-2.679.649-4.04 0-.034.081-2.135-2.191-2.135" fill="url(#a)"/><path d="M9.209 5.609a4.7 4.7 0 0 0-1.192-.133h-.02c-.495 0-.897.052-1.196.133-.944.251-1.183.82-1.464 1.581l.921.4v2.16h3.5V7.59l.91-.4c-.281-.761-.515-1.33-1.459-1.581" fill="url(#IconifyId17ecdb2904d178eab24811)"/><path d="M8 5.09h-.625v.662c0 .3.254.542.568.542h.114a.555.555 0 0 0 .568-.542V5.09z" fill="#c48e6a"/><path d="M7.999 1.049c.954 0 1.836.709 1.836 2.212 0 1.208-.748 1.923-1.399 2.152-.155.055-.305.083-.438.083s-.281-.028-.435-.081c-.651-.23-1.401-.944-1.401-2.154 0-1.504.884-2.212 1.836-2.212" fill="#e0bb95"/><path d="M8.031.501c-2.272 0-2.254 2.101-2.254 2.135 0 .43.01.916.041 1.404l.372-.001c-.004-.161.11-1.163.448-1.238 1.239-.279 1.94-.936 1.94-.936.182.398.752.786.958.934.169.121.22 1.028.216 1.24h.427l.001-.009c.031-.485.041-.968.041-1.395 0-.033.081-2.134-2.191-2.134" fill="#ab872f"/><radialGradient id="b" cx="64.147" cy="28.603" r="22.073" gradientTransform="matrix(1 0 0 1.2135 0 -4.281)" gradientUnits="userSpaceOnUse"><stop offset=".794" stop-color="#bfa055" stop-opacity="0"/><stop offset="1" stop-color="#bfa055"/></radialGradient><path d="M8.031.501c-2.272 0-2.254 2.101-2.254 2.135 0 .43.01.916.041 1.404l.372-.001c-.004-.161.11-1.163.448-1.238 1.239-.279 1.94-.936 1.94-.936.182.398.752.786.958.934.169.121.22 1.028.216 1.24h.427l.001-.009c.031-.485.041-.968.041-1.395 0-.033.081-2.134-2.191-2.134" fill="url(#b)"/><path d="M8.461 4.499c-.175.104-.746.104-.921 0-.1-.06-.203.031-.161.122.041.09.352.297.623.297s.578-.207.619-.297c.043-.091-.059-.182-.159-.122" fill="#6d4c41"/><path d="m8.211 4.05-.018-.005h-.388l-.018.005c-.035.014-.055.05-.037.09s.094.147.249.147.233-.109.249-.147c.018-.039-.003-.075-.037-.09" fill="#c48e6a"/><path d="M7.37 3.541a.27.28 0 0 1-.27.28.27.28 0 0 1-.27-.28.27.28 0 0 1 .54 0m1.8 0a.27.28 0 0 1-.27.28.27.28 0 0 1-.27-.28.27.28 0 0 1 .54 0" fill="#5d4037"/><path d="M8.5 3.04c.051-.068.17-.168.401-.168s.35.099.401.168a.07.07 0 0 1 .001.086c-.015.02-.058.037-.105.021s-.141-.064-.296-.065c-.156.001-.249.049-.296.065s-.091-.001-.105-.021A.07.07 0 0 1 8.5 3.04m-1.801 0c.051-.068.17-.168.401-.168s.35.099.401.168a.07.07 0 0 1 .001.086c-.015.02-.058.037-.105.021s-.141-.064-.296-.065c-.156.001-.249.049-.296.065s-.091-.001-.105-.021a.07.07 0 0 1-.001-.086" fill="#ab872f"/></svg>