<svg width="100" height="100" viewBox="0 0 128 128" class="icon" xmlns="http://www.w3.org/2000/svg"><path d="M15.912 63.987a48 48 0 1 0 96 0 48 48 0 1 0-96 0" fill="#9DC6AF"/><path d="M63.913 113.612c-6.7 0-13.2-1.313-19.313-3.9-5.912-2.5-11.213-6.075-15.775-10.637S20.688 89.212 18.188 83.3c-2.587-6.112-3.9-12.613-3.9-19.313s1.313-13.2 3.9-19.313c2.5-5.912 6.075-11.213 10.637-15.775s9.863-8.137 15.775-10.637c6.112-2.587 12.613-3.9 19.313-3.9s13.2 1.313 19.313 3.9c5.912 2.5 11.213 6.075 15.775 10.637s8.137 9.863 10.637 15.775c2.587 6.112 3.9 12.613 3.9 19.313s-1.313 13.2-3.9 19.313c-2.5 5.912-6.075 11.213-10.637 15.775s-9.863 8.137-15.775 10.637c-6.112 2.587-12.613 3.9-19.313 3.9m0-95.987a46.18 46.18 0 0 0-32.788 13.576 46.2 46.2 0 0 0-9.938 14.738c-2.413 5.713-3.638 11.787-3.638 18.05s1.225 12.338 3.638 18.05c2.337 5.525 5.675 10.475 9.938 14.738s9.213 7.6 14.738 9.938c5.713 2.413 11.787 3.638 18.05 3.638s12.338-1.225 18.05-3.638c5.525-2.337 10.475-5.675 14.738-9.938s7.6-9.213 9.938-14.738c2.413-5.713 3.638-11.787 3.638-18.05s-1.225-12.338-3.638-18.05c-2.337-5.525-5.675-10.475-9.938-14.738s-9.213-7.6-14.738-9.938c-5.713-2.413-11.788-3.638-18.05-3.638" fill="#191919"/><path d="M38.2 57.775a4.763 4.763 0 1 0 9.525 0 4.763 4.763 0 1 0-9.525 0m51.688 4.013c-.9 0-1.625-.725-1.625-1.625 0-1.738-1.262-3.15-2.825-3.15s-2.825 1.413-2.825 3.15c0 .9-.725 1.625-1.625 1.625s-1.625-.725-1.625-1.625c0-3.525 2.725-6.4 6.075-6.4s6.075 2.875 6.075 6.4c0 .9-.725 1.625-1.625 1.625" fill="#141414"/><path d="M52.263 68.713c0 6.15 5.3 11.175 11.775 11.175s11.775-5.025 11.775-11.175v-2.85h-23.55z" fill="#4F423B"/><path d="M64.037 81.513c-7.388 0-13.4-5.737-13.4-12.8v-4.475H77.45v4.475c0 7.063-6.013 12.8-13.412 12.8m-10.15-14.025v1.225c0 5.263 4.55 9.55 10.15 9.55s10.15-4.287 10.15-9.55v-1.225z" fill="#141414"/><path d="M57.063 74.438a6.975 2.763 0 1 0 13.95 0 6.975 2.763 0 1 0-13.95 0" fill="#D39E33"/><path d="M34.487 76.675a4.237 4.237 0 1 0 8.475 0 4.237 4.237 0 1 0-8.475 0M30.4 51.737a1.636 1.636 0 0 1-1.526-2.213c2.575-6.688 7.05-12.387 12.938-16.512 6.025-4.213 13.125-6.438 20.5-6.438a36.04 36.04 0 0 1 17.025 4.287c.787.425 1.087 1.413.662 2.2s-1.413 1.087-2.2.662a32.7 32.7 0 0 0-15.475-3.9c-6.713 0-13.162 2.025-18.637 5.862-5.362 3.75-9.438 8.938-11.775 15.012a1.63 1.63 0 0 1-1.512 1.038" fill="#F2F9F4"/><path d="M34.712 97.138c-3.163 0-6.188-.15-9.063-.45C12.025 95.25 3.413 90.425 1.387 83.125c-1.012-3.65-.313-7.6 2.075-11.75 2.15-3.725 5.612-7.5 10.3-11.225.975-.775 2.388-.613 3.163.362s.613 2.388-.362 3.163c-4.25 3.375-7.338 6.725-9.2 9.95-1.762 3.05-2.313 5.85-1.637 8.3C7.2 87.25 14.637 91 26.125 92.213c12.375 1.313 27.913-.388 43.775-4.775s30.063-10.925 40-18.4c9.238-6.95 13.688-13.988 12.213-19.313-1.325-4.787-7.362-8.275-17-9.838a2.247 2.247 0 1 1 .712-4.438c5.463.887 9.975 2.375 13.412 4.425 3.825 2.275 6.25 5.188 7.213 8.662 2.025 7.3-2.9 15.863-13.838 24.113-10.375 7.813-25.125 14.613-41.513 19.15-12.75 3.5-25.337 5.338-36.388 5.338" fill="#141414"/></svg>