<svg width="500" height="500" viewBox="0 0 15 15" xmlns="http://www.w3.org/2000/svg"><path d="M14.125 1.313c-0.063 -0.188 -0.25 -0.375 -0.438 -0.438 -2.625 -0.688 -5.313 0.125 -7.125 2.25L5.875 3.938l-1.688 -0.375C3.375 3.25 2.5 3.625 2.125 4.375l-1.375 2.438q-0.188 0.281 0 0.563c0.063 0.188 0.25 0.313 0.438 0.375l1.938 0.438c-0.188 0.5 -0.25 1 -0.375 1.5 0 0.188 0.063 0.375 0.188 0.5l1.938 1.938c0.125 0.125 0.25 0.188 0.438 0.188h0.063c0.563 -0.063 1.063 -0.125 1.563 -0.313l0.375 1.875c0.063 0.188 0.188 0.375 0.375 0.438 0.063 0.063 0.188 0.063 0.25 0.063 0.125 0 0.188 0 0.313 -0.063l2.438 -1.375c0.688 -0.375 1.063 -1.25 0.875 -2.063l-0.438 -1.75 0.75 -0.688c2.063 -1.75 2.938 -4.563 2.25 -7.125M4.563 5.5c-0.375 0.5 -0.75 1 -1 1.5l-1.313 -0.313L3.188 5c0.125 -0.25 0.375 -0.313 0.688 -0.25l1.063 0.25zM10 11.813l-1.688 0.938 -0.25 -1.25c0.563 -0.25 1.063 -0.625 1.5 -1l0.438 -0.438 0.25 1.063c0.125 0.313 -0.063 0.625 -0.25 0.688m0.438 -6.313c-0.5 0 -0.938 -0.438 -0.938 -0.938s0.438 -0.938 0.938 -0.938 0.938 0.438 0.938 0.938 -0.375 0.938 -0.938 0.938"/></svg>