<svg xmlns="http://www.w3.org/2000/svg" width="40" height="40" viewBox="0 0 1.6 1.6" xml:space="preserve"><path d="M0.8 1.4a0.1 0.1 0 1 1 -0.2 0A0.1 0.1 0 0 1 0.8 1.4m0.45 -0.1a0.1 0.1 0 1 0 0 0.2A0.1 0.1 0 0 0 1.25 1.3m0.1 -0.25H0.614l0.025 0.1H1.35a0.05 0.05 0 1 1 0 0.1H0.6a0.05 0.05 0 0 1 -0.049 -0.038L0.311 0.25H0.1a0.05 0.05 0 1 1 0 -0.1h0.25a0.05 0.05 0 0 1 0.049 0.038L0.439 0.35H1.5a0.05 0.05 0 0 1 0.049 0.062l-0.15 0.6A0.05 0.05 0 0 1 1.35 1.05m-0.25 -0.55a0.05 0.05 0 1 0 0.1 0 0.05 0.05 0 0 0 -0.1 0m-0.2 0a0.05 0.05 0 1 0 0.1 0 0.05 0.05 0 0 0 -0.1 0m-0.2 0a0.05 0.05 0 1 0 0.1 0 0.05 0.05 0 0 0 -0.1 0m-0.1 0a0.05 0.05 0 1 0 -0.1 0 0.05 0.05 0 0 0 0.1 0m0.1 0.2a0.05 0.05 0 1 0 -0.1 0 0.05 0.05 0 0 0 0.1 0m0.1 0.2a0.05 0.05 0 1 0 -0.1 0 0.05 0.05 0 0 0 0.1 0m0.1 -0.2a0.05 0.05 0 1 0 -0.1 0 0.05 0.05 0 0 0 0.1 0m0.1 0.2a0.05 0.05 0 1 0 -0.1 0 0.05 0.05 0 0 0 0.1 0m0.1 -0.2a0.05 0.05 0 1 0 -0.1 0 0.05 0.05 0 0 0 0.1 0m0.1 0.2a0.05 0.05 0 1 0 -0.1 0 0.05 0.05 0 0 0 0.1 0m0.1 -0.2a0.05 0.05 0 1 0 -0.1 0 0.05 0.05 0 0 0 0.1 0m0.05 -0.15a0.05 0.05 0 1 0 0 -0.1 0.05 0.05 0 0 0 0 0.1" /></svg>