<svg xmlns="http://www.w3.org/2000/svg" viewBox="0 0 100 100" xml:space="preserve" width="100" height="100"><path style="fill:#bb844c" d="M24.035 84.838h51.93V71.261h-51.93zM25.706 73.7a1.01 1.01 0 0 1 1.01-1.01h46.569a1.01 1.01 0 0 1 1.01 1.01v8.866a1.01 1.01 0 0 1-1.01 1.01H26.716a1.01 1.01 0 0 1-1.01-1.01zm15.451-27.838a.576.576 0 0 1-.576.576.576.576 0 0 1-.576-.576.576.576 0 0 1 1.152 0"/><path style="fill:#ccb683" d="M42.166 11.526H30.86a3.354 3.354 0 0 0-3.351 3.351v47.644a3.354 3.354 0 0 0 3.351 3.351h11.306a3.354 3.354 0 0 0 3.351-3.351V14.877a3.354 3.354 0 0 0-3.351-3.351m-1.585 36.932c-1.432 0-2.596-1.164-2.596-2.596s1.165-2.596 2.596-2.596 2.596 1.165 2.596 2.596a2.6 2.6 0 0 1-2.596 2.596"/><path style="fill:#bb844c" d="M24.035 8.019v61.222H48.99V8.019zm23.502 54.503a5.377 5.377 0 0 1-5.371 5.371H30.86a5.377 5.377 0 0 1-5.371-5.371V14.877a5.377 5.377 0 0 1 5.371-5.371h11.306a5.377 5.377 0 0 1 5.371 5.371z"/><path style="fill:#ccb683" d="M72.275 74.71H27.726v6.846h44.549zm-34.867 6.019c-1.432 0-2.596-1.164-2.596-2.596s1.165-2.596 2.596-2.596 2.596 1.165 2.596 2.596a2.6 2.6 0 0 1-2.596 2.596m25.185 0c-1.432 0-2.597-1.164-2.597-2.596s1.165-2.596 2.597-2.596a2.6 2.6 0 0 1 2.596 2.596 2.6 2.6 0 0 1-2.596 2.596"/><path style="fill:#bb844c" d="M62.593 77.556a.577.577 0 0 0-.577.576.577.577 0 0 0 1.153 0 .577.577 0 0 0-.576-.576"/><path style="fill:#ccb683" d="m77.095 2.999.287-.979H22.618l.287.979Z"/><path style="fill:#bb844c" d="M37.984 78.133a.576.576 0 0 1-.576.576.576.576 0 0 1-.576-.576.576.576 0 0 1 1.152 0M26.293 92.857h-2.787a1.227 1.227 0 0 0-1.226 1.225c0 .474.734 1.145 1.108 1.383a1.01 1.01 0 0 1 .469.853v1.663h2.084v-1.663c0-.346.177-.667.469-.853.445-.287 1.108-.927 1.108-1.383a1.227 1.227 0 0 0-1.225-1.225M75.965 8.019H51.01v61.222h24.955zm-1.453 54.503a5.377 5.377 0 0 1-5.371 5.371H57.835a5.377 5.377 0 0 1-5.371-5.371V14.877a5.377 5.377 0 0 1 5.371-5.371h11.306a5.377 5.377 0 0 1 5.371 5.371zM23.496 5.019l.287.98h52.435l.286-.98Z"/><path style="fill:#ccb683" d="M23.496 87.837h53.008l-.286-.979H23.783Z"/><path style="fill:#bb844c" d="M77.095 89.857h-54.19l-.287.98h54.764Zm-.6 3h-2.787a1.226 1.226 0 0 0-1.225 1.225c0 .474.734 1.145 1.108 1.383a1.01 1.01 0 0 1 .469.853v1.663h2.084v-1.663a1.01 1.01 0 0 1 .469-.853c.445-.287 1.107-.927 1.107-1.383a1.226 1.226 0 0 0-1.225-1.225M59.42 45.286a.577.577 0 0 0-.576.576.577.577 0 0 0 .576.576.577.577 0 0 0 .576-.576.577.577 0 0 0-.576-.576"/><path style="fill:#ccb683" d="M69.141 11.526H57.835a3.354 3.354 0 0 0-3.351 3.351v47.644a3.354 3.354 0 0 0 3.351 3.351h11.306a3.354 3.354 0 0 0 3.351-3.351V14.877a3.355 3.355 0 0 0-3.351-3.351M59.42 48.458c-1.432 0-2.596-1.164-2.596-2.596s1.165-2.596 2.596-2.596 2.596 1.165 2.596 2.596-1.164 2.596-2.596 2.596"/><path style="fill:#7c5f53" d="M26.716 83.576h46.569a1.01 1.01 0 0 0 1.01-1.01V73.7a1.01 1.01 0 0 0-1.01-1.01H26.716a1.01 1.01 0 0 0-1.01 1.01v8.866a1.01 1.01 0 0 0 1.01 1.01m1.01-8.866h44.549v6.846H27.726z"/><path style="fill:#7c5f53" d="M37.408 75.536a2.6 2.6 0 0 0-2.596 2.596c0 1.431 1.165 2.596 2.596 2.596s2.596-1.164 2.596-2.596-1.165-2.596-2.596-2.596m0 3.172a.577.577 0 0 1-.576-.576.577.577 0 0 1 .576-.576.577.577 0 0 1 .576.576.577.577 0 0 1-.576.576m25.185-3.172a2.6 2.6 0 0 0-2.597 2.596 2.6 2.6 0 0 0 2.597 2.596c1.432 0 2.596-1.164 2.596-2.596s-1.164-2.596-2.596-2.596m0 3.172a.577.577 0 0 1-.577-.576.577.577 0 0 1 .577-.576.577.577 0 0 1 .576.576.577.577 0 0 1-.576.576"/><path style="fill:#7c5f53" d="M79.538 92.453a1.01 1.01 0 0 0 .161-.889l-1.714-5.859V7.153l1.714-5.859A1.01 1.01 0 0 0 78.73 0H21.27a1.01 1.01 0 0 0-.97 1.294l1.714 5.859v78.552L20.3 91.564a1.01 1.01 0 0 0 .161.889q.068.09.153.162a3.2 3.2 0 0 0-.355 1.467c0 1.262.966 2.248 1.577 2.745v2.163a1.01 1.01 0 0 0 1.01 1.01h4.104a1.01 1.01 0 0 0 1.01-1.01v-2.163c.611-.497 1.576-1.483 1.576-2.745 0-.433-.087-.847-.242-1.225h41.409a3.2 3.2 0 0 0-.242 1.225c0 1.262.966 2.248 1.577 2.745v2.163a1.01 1.01 0 0 0 1.01 1.01h4.104a1.01 1.01 0 0 0 1.01-1.01v-2.163c.61-.497 1.576-1.483 1.576-2.745a3.2 3.2 0 0 0-.355-1.467q.085-.072.154-.162M77.382 2.02l-.286.979H22.905l-.287-.979zm-1.417 69.241v13.577h-51.93V71.261zm-51.93-2.02V8.019H48.99v61.222zm26.975 0V8.019h24.955v61.222zm25.208 17.617.286.98H23.496l.287-.98zm0-80.859H23.783l-.287-.98h53.008zM26.41 95.465a1.01 1.01 0 0 0-.469.853v1.663h-2.084v-1.663a1.01 1.01 0 0 0-.469-.853c-.374-.237-1.108-.908-1.108-1.383 0-.676.55-1.225 1.226-1.225h2.787a1.226 1.226 0 0 1 1.225 1.225c0 .455-.663 1.095-1.107 1.383m-3.792-4.628.287-.98h54.191l.286.98zm53.994 4.628a1.01 1.01 0 0 0-.469.853v1.663H74.06v-1.663a1.01 1.01 0 0 0-.469-.853c-.374-.237-1.108-.908-1.108-1.383a1.226 1.226 0 0 1 1.225-1.225h2.787a1.226 1.226 0 0 1 1.225 1.225c0 .455-.663 1.095-1.107 1.383"/><path style="fill:#7c5f53" d="M42.166 9.506H30.86a5.377 5.377 0 0 0-5.371 5.371v47.644a5.377 5.377 0 0 0 5.371 5.371h11.306a5.377 5.377 0 0 0 5.371-5.371V14.877a5.377 5.377 0 0 0-5.371-5.371m3.351 53.016a3.354 3.354 0 0 1-3.351 3.351H30.86a3.354 3.354 0 0 1-3.351-3.351V14.877a3.354 3.354 0 0 1 3.351-3.351h11.306a3.354 3.354 0 0 1 3.351 3.351zM69.141 9.506H57.835a5.377 5.377 0 0 0-5.371 5.371v47.644a5.377 5.377 0 0 0 5.371 5.371h11.306a5.377 5.377 0 0 0 5.371-5.371V14.877a5.377 5.377 0 0 0-5.371-5.371m3.351 53.016a3.354 3.354 0 0 1-3.351 3.351H57.835a3.354 3.354 0 0 1-3.351-3.351V14.877a3.354 3.354 0 0 1 3.351-3.351h11.306a3.354 3.354 0 0 1 3.351 3.351z"/><path style="fill:#7c5f53" d="M40.581 43.266a2.6 2.6 0 0 0-2.596 2.596c0 1.431 1.165 2.596 2.596 2.596s2.596-1.164 2.596-2.596a2.6 2.6 0 0 0-2.596-2.596m0 3.172a.577.577 0 0 1-.576-.576.576.576 0 0 1 1.152 0 .577.577 0 0 1-.576.576m18.839-3.172a2.6 2.6 0 0 0-2.596 2.596c0 1.431 1.165 2.596 2.596 2.596s2.596-1.164 2.596-2.596-1.164-2.596-2.596-2.596m0 3.172a.577.577 0 0 1-.576-.576.577.577 0 0 1 .576-.576.577.577 0 0 1 .576.576.577.577 0 0 1-.576.576"/></svg>